<svg width="30" height="34" viewBox="0 0 30 34" fill="none" xmlns="http://www.w3.org/2000/svg">
<path d="M18.75 0H6.25C2.80375 0 0 3.1259 0 6.96813V20.9044C0 24.7466 2.80375 27.8725 6.25 27.8725H18.75C22.1963 27.8725 25 24.7466 25 20.9044V6.96813C25 3.1259 22.1963 0 18.75 0ZM17.5 15.3299H13.75V19.5108C13.75 20.2801 13.19 20.9044 12.5 20.9044C11.81 20.9044 11.25 20.2801 11.25 19.5108V15.3299H7.5C6.81 15.3299 6.25 14.7055 6.25 13.9363C6.25 13.167 6.81 12.5426 7.5 12.5426H11.25V8.36176C11.25 7.59248 11.81 6.96813 12.5 6.96813C13.19 6.96813 13.75 7.59248 13.75 8.36176V12.5426H17.5C18.19 12.5426 18.75 13.167 18.75 13.9363C18.75 14.7055 18.19 15.3299 17.5 15.3299ZM23.75 33.447H8.75C8.06 33.447 7.5 32.8227 7.5 32.0534C7.5 31.2841 8.06 30.6598 8.75 30.6598H23.75C25.8175 30.6598 27.5 28.784 27.5 26.4789V9.75539C27.5 8.9861 28.06 8.36176 28.75 8.36176C29.44 8.36176 30 8.9861 30 9.75539V26.4789C30 30.3211 27.1963 33.447 23.75 33.447Z" fill="#004442"/>
</svg>
