<svg width="18" height="18" viewBox="0 0 18 18" fill="none" xmlns="http://www.w3.org/2000/svg">
<path d="M15.2074 2.43875C14.5821 1.79066 13.7747 1.39154 12.9603 1.32787L3.55554 0.551176C3.14662 0.519177 2.7673 0.658925 2.50043 0.939899C2.23357 1.22087 2.10083 1.62024 2.13123 2.05078C2.14618 2.26589 2.20147 2.48235 2.2939 2.68766C2.38634 2.89296 2.51408 3.08306 2.66977 3.24698C2.82546 3.4109 3.00601 3.5454 3.20101 3.64271C3.39601 3.74003 3.6016 3.79824 3.80592 3.81399L10.9976 4.38769L0.896098 15.0232C0.628189 15.3052 0.495507 15.7066 0.527239 16.1389C0.558972 16.5712 0.75252 16.9991 1.06531 17.3284C1.37809 17.6577 1.78449 17.8615 2.19511 17.8949C2.60572 17.9283 2.98691 17.7886 3.25482 17.5066L13.3563 6.87109L13.913 14.4554C13.9433 14.8878 14.1356 15.3164 14.4477 15.6469C14.7597 15.9774 15.1658 16.1827 15.5768 16.2177C15.9877 16.2526 16.3698 16.1144 16.639 15.8333C16.9082 15.5522 17.0423 15.1514 17.012 14.719L16.2743 4.81704C16.2134 3.954 15.8297 3.0987 15.2074 2.43875Z" fill="black"/>
</svg>
