<svg width="16" height="16" viewBox="0 0 16 16" fill="none" xmlns="http://www.w3.org/2000/svg">
<g clip-path="url(#clip0_176_806)">
<path d="M3.33334 9.99998H2.66668C2.31305 9.99998 1.97392 9.8595 1.72387 9.60946C1.47382 9.35941 1.33334 9.02027 1.33334 8.66665V2.66665C1.33334 2.31302 1.47382 1.97389 1.72387 1.72384C1.97392 1.47379 2.31305 1.33331 2.66668 1.33331H8.66668C9.0203 1.33331 9.35944 1.47379 9.60949 1.72384C9.85953 1.97389 10 2.31302 10 2.66665V3.33331M7.33334 5.99998H13.3333C14.0697 5.99998 14.6667 6.59693 14.6667 7.33331V13.3333C14.6667 14.0697 14.0697 14.6666 13.3333 14.6666H7.33334C6.59696 14.6666 6.00001 14.0697 6.00001 13.3333V7.33331C6.00001 6.59693 6.59696 5.99998 7.33334 5.99998Z" stroke="#EBFFEE" stroke-width="1.5" stroke-linecap="round" stroke-linejoin="round"/>
</g>
<defs>
<clipPath id="clip0_176_806">
<rect width="16" height="16" fill="white"/>
</clipPath>
</defs>
</svg>
