<svg width="14" height="14" viewBox="0 0 14 14" fill="none" xmlns="http://www.w3.org/2000/svg">
<g clip-path="url(#clip0_166_392)">
<path d="M13.4091 3.18033C13.3927 3.07708 13.2271 2.14958 12.5551 1.47233C11.8801 0.811996 10.9491 0.648663 10.8453 0.63233C10.7071 0.60958 10.5659 0.638746 10.4475 0.712246C10.4061 0.737913 9.79764 1.11883 8.59656 2.13441C9.21431 2.35258 10.0129 2.73116 10.6604 3.36466C11.3102 4.0005 11.6987 4.78275 11.9216 5.38941C12.9249 4.21691 13.3023 3.62308 13.3274 3.58225C13.4021 3.46266 13.4312 3.31975 13.4091 3.18033Z" fill="white"/>
<path d="M7.55417 3.04675C6.92825 3.61142 6.19967 4.29742 5.3655 5.12575C1.82875 8.63742 0.901252 10.0415 0.863335 10.0993C0.810252 10.1809 0.778168 10.2748 0.770585 10.3717L0.584502 12.7464C0.571668 12.9168 0.632918 13.0836 0.753668 13.2043C0.863335 13.314 1.01209 13.3753 1.16667 13.3753C1.18125 13.3753 1.19642 13.3753 1.21158 13.3735L3.60384 13.1892C3.70009 13.1816 3.79283 13.1507 3.87392 13.0988C3.93225 13.0614 5.34567 12.1403 8.88183 8.62925C9.73467 7.78225 10.4382 7.04492 11.0139 6.41434C10.9258 6.03575 10.6184 4.95542 9.84434 4.19884C9.05917 3.43059 7.92984 3.12959 7.55417 3.04675Z" fill="white"/>
</g>
<defs>
<clipPath id="clip0_166_392">
<rect width="14" height="14" fill="white"/>
</clipPath>
</defs>
</svg>
