<svg width="40" height="40" viewBox="0 0 40 40" fill="none" xmlns="http://www.w3.org/2000/svg">
<circle cx="20" cy="20" r="20" fill="#004442"/>
<g clip-path="url(#clip0_212_103)">
<path d="M23.364 10.637C21.519 8.79198 18.962 7.83298 16.349 8.02298C11.823 8.34298 8 12.589 8 17.296V22.334C8 24.355 9.642 26 11.661 26H16.138C21.325 26 25.647 22.333 25.977 17.651C26.162 15.038 25.209 12.481 23.364 10.636V10.637ZM12.5 18.5C11.672 18.5 11 17.828 11 17C11 16.172 11.672 15.5 12.5 15.5C13.328 15.5 14 16.172 14 17C14 17.828 13.328 18.5 12.5 18.5ZM17 18.5C16.172 18.5 15.5 17.828 15.5 17C15.5 16.172 16.172 15.5 17 15.5C17.828 15.5 18.5 16.172 18.5 17C18.5 17.828 17.828 18.5 17 18.5ZM21.5 18.5C20.672 18.5 20 17.828 20 17C20 16.172 20.672 15.5 21.5 15.5C22.328 15.5 23 16.172 23 17C23 17.828 22.328 18.5 21.5 18.5ZM32 24V29C32 30.657 30.657 32 29 32H24C21.045 32 18.465 30.385 17.08 27.996C17.071 27.983 17.064 27.972 17.056 27.959C22.872 27.543 27.588 23.232 27.972 17.792C27.989 17.553 27.983 17.315 27.984 17.077C27.988 17.078 27.992 17.079 27.996 17.08C30.385 18.465 32 21.045 32 24Z" fill="white"/>
</g>
<defs>
<clipPath id="clip0_212_103">
<rect width="24" height="24" fill="white" transform="translate(8 8)"/>
</clipPath>
</defs>
</svg>
