<svg width="40" height="40" viewBox="0 0 40 40" fill="none" xmlns="http://www.w3.org/2000/svg">
<circle cx="20" cy="20" r="20" fill="#004442"/>
<g clip-path="url(#clip0_212_84)">
<path d="M32 24.5V25H17C16.938 24.3701 17.008 23.7342 17.2055 23.1328C17.403 22.5315 17.7237 21.9779 18.1472 21.5074C18.5706 21.037 19.0874 20.6599 19.6647 20.4004C20.242 20.1408 20.8671 20.0045 21.5 20H27.5C28.6935 20 29.8381 20.4741 30.682 21.318C31.5259 22.1619 32 23.3065 32 24.5ZM26.2 28.829C26.0358 28.9384 25.8429 28.9968 25.6455 28.9968C25.4482 28.9968 25.2553 28.9384 25.091 28.829L22.343 27H17C16.9382 27.6299 17.0083 28.2658 17.2058 28.867C17.4034 29.4683 17.7241 30.0218 18.1475 30.4923C18.5709 30.9627 19.0877 31.3397 19.6649 31.5993C20.2421 31.8589 20.8671 31.9954 21.5 32H27.5C28.133 31.9955 28.758 31.8592 29.3353 31.5996C29.9126 31.3401 30.4295 30.9631 30.8529 30.4926C31.2763 30.0221 31.597 29.4685 31.7945 28.8672C31.992 28.2658 32.062 27.6299 32 27H28.95L26.2 28.829ZM15 24.5V27.5C15.0002 29.1845 15.6575 30.8025 16.832 32.01H14.532C13.3139 32.0086 12.138 31.563 11.2249 30.7566C10.3118 29.9503 9.72414 28.8386 9.57203 27.63L8.05903 15.572C7.98118 15.1397 7.99859 14.6956 8.11004 14.2707C8.22148 13.8458 8.42429 13.4503 8.7043 13.1118C8.98431 12.7733 9.33479 12.5 9.73129 12.3109C10.1278 12.1219 10.5608 12.0216 11 12.017H17.617L17.79 10.633C17.8809 9.90793 18.2333 9.24094 18.781 8.75725C19.3288 8.27356 20.0343 8.00643 20.765 8.00601H24C24.2652 8.00601 24.5196 8.11137 24.7071 8.29891C24.8947 8.48644 25 8.7408 25 9.00601C25 9.27123 24.8947 9.52558 24.7071 9.71312C24.5196 9.90065 24.2652 10.006 24 10.006H20.765C19.675 10.006 19.738 11.251 19.631 12.018H22C22.4483 12.0212 22.8903 12.1242 23.2937 12.3197C23.6972 12.5151 24.0521 12.7979 24.3325 13.1477C24.6129 13.4975 24.8119 13.9054 24.9149 14.3417C25.0179 14.778 25.0224 15.2318 24.928 15.67L24.635 18H21.5C19.7766 18.0016 18.1242 18.6869 16.9056 19.9056C15.6869 21.1242 15.0016 22.7766 15 24.5ZM19.38 14.018L19.133 16H22.873L22.958 15.325C23.0045 15.1744 23.0151 15.0151 22.989 14.8596C22.9629 14.7042 22.9009 14.5571 22.8078 14.4299C22.7147 14.3027 22.5932 14.1991 22.453 14.1272C22.3127 14.0553 22.1576 14.0173 22 14.016L19.38 14.018ZM17.118 16L17.367 14.014H11C10.8507 14.015 10.7034 14.0493 10.5689 14.1143C10.4345 14.1793 10.3162 14.2735 10.2226 14.3899C10.1291 14.5063 10.0626 14.6421 10.0281 14.7874C9.99358 14.9328 9.99184 15.0839 10.023 15.23L10.123 16H17.118Z" fill="white"/>
</g>
<defs>
<clipPath id="clip0_212_84">
<rect width="24" height="24" fill="white" transform="translate(8 8)"/>
</clipPath>
</defs>
</svg>
