<svg width="40" height="39" viewBox="0 0 40 39" fill="none" xmlns="http://www.w3.org/2000/svg">
<ellipse cx="20" cy="19.5" rx="20" ry="19.5" fill="#004442"/>
<g clip-path="url(#clip0_212_120)">
<path d="M30.713 11.7751C30.4317 11.4459 30.0796 11.1812 29.6815 10.9998C29.2835 10.8183 28.8494 10.7245 28.41 10.725H12.242L12.2 10.3828C12.114 9.67142 11.7634 9.01555 11.2145 8.5395C10.6656 8.06346 9.95663 7.80032 9.222 7.79999H9C8.73478 7.79999 8.48043 7.90271 8.29289 8.08556C8.10536 8.26841 8 8.5164 8 8.77499C8 9.03357 8.10536 9.28157 8.29289 9.46442C8.48043 9.64727 8.73478 9.74999 9 9.74999H9.222C9.46693 9.75002 9.70334 9.8377 9.88637 9.99639C10.0694 10.1551 10.1863 10.3737 10.215 10.6109L11.591 22.0184C11.7339 23.2048 12.3185 24.2987 13.2339 25.0926C14.1493 25.8865 15.3319 26.325 16.557 26.325H27C27.2652 26.325 27.5196 26.2223 27.7071 26.0394C27.8946 25.8566 28 25.6086 28 25.35C28 25.0914 27.8946 24.8434 27.7071 24.6606C27.5196 24.4777 27.2652 24.375 27 24.375H16.557C15.9381 24.3733 15.3348 24.185 14.8299 23.8359C14.3251 23.4868 13.9433 22.9939 13.737 22.425H25.657C26.8293 22.4251 27.9643 22.0235 28.8638 21.2905C29.7633 20.5575 30.37 19.5397 30.578 18.4148L31.363 14.1697C31.4414 13.7485 31.4237 13.3156 31.3114 12.9018C31.1991 12.488 30.9948 12.1033 30.713 11.7751Z" fill="white"/>
<path d="M15 31.2C16.1046 31.2 17 30.3269 17 29.25C17 28.173 16.1046 27.3 15 27.3C13.8954 27.3 13 28.173 13 29.25C13 30.3269 13.8954 31.2 15 31.2Z" fill="white"/>
<path d="M25 31.2C26.1046 31.2 27 30.3269 27 29.25C27 28.173 26.1046 27.3 25 27.3C23.8954 27.3 23 28.173 23 29.25C23 30.3269 23.8954 31.2 25 31.2Z" fill="white"/>
</g>
<defs>
<clipPath id="clip0_212_120">
<rect width="24" height="23.4" fill="white" transform="translate(8 7.79999)"/>
</clipPath>
</defs>
</svg>
