<svg width="40" height="40" viewBox="0 0 40 40" fill="none" xmlns="http://www.w3.org/2000/svg">
<circle cx="20" cy="20" r="20" fill="#C10007"/>
<path d="M11 28.5C11 29.328 10.328 30 9.5 30C8.672 30 8 29.328 8 28.5C8 27.672 8.672 27 9.5 27C10.328 27 11 27.672 11 28.5ZM8 22V24C11.309 24 14 26.691 14 30H16C16 25.589 12.411 22 8 22ZM8.051 17V19C14.088 19 19 23.935 19 30H21C21 22.832 15.191 17 8.051 17ZM29 10H11C9.346 10 8 11.346 8 13V15H8.051C16.294 15 23 21.729 23 30H32V13C32 11.346 30.654 10 29 10Z" fill="white"/>
</svg>
