<svg width="40" height="40" viewBox="0 0 40 40" fill="none" xmlns="http://www.w3.org/2000/svg">
<circle cx="20" cy="20" r="20" fill="#2A3663"/>
<g clip-path="url(#clip0_177_95)">
<path d="M30.713 12.077C30.4317 11.7394 30.0796 11.468 29.6815 11.2818C29.2835 11.0957 28.8494 10.9995 28.41 11H12.242L12.2 10.649C12.114 9.91942 11.7634 9.24673 11.2145 8.75848C10.6656 8.27022 9.95663 8.00034 9.222 8H9C8.73478 8 8.48043 8.10536 8.29289 8.29289C8.10536 8.48043 8 8.73478 8 9C8 9.26522 8.10536 9.51957 8.29289 9.70711C8.48043 9.89464 8.73478 10 9 10H9.222C9.46693 10 9.70334 10.09 9.88637 10.2527C10.0694 10.4155 10.1863 10.6397 10.215 10.883L11.591 22.583C11.7339 23.7998 12.3185 24.9218 13.2339 25.736C14.1493 26.5502 15.3319 27 16.557 27H27C27.2652 27 27.5196 26.8946 27.7071 26.7071C27.8946 26.5196 28 26.2652 28 26C28 25.7348 27.8946 25.4804 27.7071 25.2929C27.5196 25.1054 27.2652 25 27 25H16.557C15.9381 24.9983 15.3348 24.8051 14.8299 24.4471C14.3251 24.089 13.9433 23.5836 13.737 23H25.657C26.8293 23.0001 27.9643 22.5882 28.8638 21.8364C29.7633 21.0846 30.37 20.0407 30.578 18.887L31.363 14.533C31.4414 14.101 31.4237 13.6571 31.3114 13.2326C31.1991 12.8082 30.9948 12.4137 30.713 12.077Z" fill="white"/>
<path d="M15 32C16.1046 32 17 31.1046 17 30C17 28.8954 16.1046 28 15 28C13.8954 28 13 28.8954 13 30C13 31.1046 13.8954 32 15 32Z" fill="white"/>
<path d="M25 32C26.1046 32 27 31.1046 27 30C27 28.8954 26.1046 28 25 28C23.8954 28 23 28.8954 23 30C23 31.1046 23.8954 32 25 32Z" fill="white"/>
</g>
<defs>
<clipPath id="clip0_177_95">
<rect width="24" height="24" fill="white" transform="translate(8 8)"/>
</clipPath>
</defs>
</svg>
