<svg width="783" height="149" viewBox="0 0 783 149" fill="none" xmlns="http://www.w3.org/2000/svg">
<path d="M199.963 71.632C203.739 72.336 206.843 74.224 209.275 77.296C211.707 80.368 212.923 83.888 212.923 87.856C212.923 91.44 212.027 94.608 210.235 97.36C208.507 100.048 205.979 102.16 202.651 103.696C199.323 105.232 195.387 106 190.843 106H161.947V38.992H189.595C194.139 38.992 198.043 39.728 201.307 41.2C204.635 42.672 207.131 44.72 208.795 47.344C210.523 49.968 211.387 52.944 211.387 56.272C211.387 60.176 210.331 63.44 208.219 66.064C206.171 68.688 203.419 70.544 199.963 71.632ZM175.387 66.64H187.675C190.875 66.64 193.339 65.936 195.067 64.528C196.795 63.056 197.659 60.976 197.659 58.288C197.659 55.6 196.795 53.52 195.067 52.048C193.339 50.576 190.875 49.84 187.675 49.84H175.387V66.64ZM188.923 95.056C192.187 95.056 194.715 94.288 196.507 92.752C198.363 91.216 199.291 89.04 199.291 86.224C199.291 83.344 198.331 81.104 196.411 79.504C194.491 77.84 191.899 77.008 188.635 77.008H175.387V95.056H188.923ZM273.074 78.256C273.074 80.176 272.946 81.904 272.69 83.44H233.81C234.13 87.28 235.474 90.288 237.842 92.464C240.21 94.64 243.122 95.728 246.578 95.728C251.57 95.728 255.122 93.584 257.234 89.296H271.73C270.194 94.416 267.25 98.64 262.898 101.968C258.546 105.232 253.202 106.864 246.866 106.864C241.746 106.864 237.138 105.744 233.042 103.504C229.01 101.2 225.842 97.968 223.538 93.808C221.298 89.648 220.178 84.848 220.178 79.408C220.178 73.904 221.298 69.072 223.538 64.912C225.778 60.752 228.914 57.552 232.946 55.312C236.978 53.072 241.618 51.952 246.866 51.952C251.922 51.952 256.434 53.04 260.402 55.216C264.434 57.392 267.538 60.496 269.714 64.528C271.954 68.496 273.074 73.072 273.074 78.256ZM259.154 74.416C259.09 70.96 257.842 68.208 255.41 66.16C252.978 64.048 250.002 62.992 246.482 62.992C243.154 62.992 240.338 64.016 238.034 66.064C235.794 68.048 234.418 70.832 233.906 74.416H259.154ZM328.484 38.992V49.84H310.628V106H297.188V49.84H279.332V38.992H328.484ZM351.731 61.072C353.459 58.256 355.699 56.048 358.451 54.448C361.267 52.848 364.467 52.048 368.051 52.048V66.16H364.499C360.275 66.16 357.075 67.152 354.899 69.136C352.787 71.12 351.731 74.576 351.731 79.504V106H338.291V52.816H351.731V61.072ZM373.647 79.216C373.647 73.84 374.703 69.072 376.815 64.912C378.991 60.752 381.903 57.552 385.551 55.312C389.263 53.072 393.391 51.952 397.935 51.952C401.903 51.952 405.359 52.752 408.303 54.352C411.311 55.952 413.711 57.968 415.503 60.4V52.816H429.039V106H415.503V98.224C413.775 100.72 411.375 102.8 408.303 104.464C405.295 106.064 401.807 106.864 397.839 106.864C393.359 106.864 389.263 105.712 385.551 103.408C381.903 101.104 378.991 97.872 376.815 93.712C374.703 89.488 373.647 84.656 373.647 79.216ZM415.503 79.408C415.503 76.144 414.863 73.36 413.583 71.056C412.303 68.688 410.575 66.896 408.399 65.68C406.223 64.4 403.887 63.76 401.391 63.76C398.895 63.76 396.591 64.368 394.479 65.584C392.367 66.8 390.639 68.592 389.295 70.96C388.015 73.264 387.375 76.016 387.375 79.216C387.375 82.416 388.015 85.232 389.295 87.664C390.639 90.032 392.367 91.856 394.479 93.136C396.655 94.416 398.959 95.056 401.391 95.056C403.887 95.056 406.223 94.448 408.399 93.232C410.575 91.952 412.303 90.16 413.583 87.856C414.863 85.488 415.503 82.672 415.503 79.408ZM438.71 79.408C438.71 73.904 439.83 69.104 442.07 65.008C444.31 60.848 447.414 57.648 451.382 55.408C455.35 53.104 459.894 51.952 465.014 51.952C471.606 51.952 477.046 53.616 481.334 56.944C485.686 60.208 488.598 64.816 490.07 70.768H475.574C474.806 68.464 473.494 66.672 471.638 65.392C469.846 64.048 467.606 63.376 464.918 63.376C461.078 63.376 458.038 64.784 455.798 67.6C453.558 70.352 452.438 74.288 452.438 79.408C452.438 84.464 453.558 88.4 455.798 91.216C458.038 93.968 461.078 95.344 464.918 95.344C470.358 95.344 473.91 92.912 475.574 88.048H490.07C488.598 93.808 485.686 98.384 481.334 101.776C476.982 105.168 471.542 106.864 465.014 106.864C459.894 106.864 455.35 105.744 451.382 103.504C447.414 101.2 444.31 98 442.07 93.904C439.83 89.744 438.71 84.912 438.71 79.408ZM531.404 106L513.356 83.344V106H499.916V34.96H513.356V75.376L531.212 52.816H548.684L525.26 79.504L548.876 106H531.404ZM562.794 46.48C560.426 46.48 558.442 45.744 556.842 44.272C555.306 42.736 554.538 40.848 554.538 38.608C554.538 36.368 555.306 34.512 556.842 33.04C558.442 31.504 560.426 30.736 562.794 30.736C565.162 30.736 567.114 31.504 568.65 33.04C570.25 34.512 571.05 36.368 571.05 38.608C571.05 40.848 570.25 42.736 568.65 44.272C567.114 45.744 565.162 46.48 562.794 46.48ZM569.418 52.816V106H555.978V52.816H569.418ZM612.169 52.048C618.505 52.048 623.625 54.064 627.529 58.096C631.433 62.064 633.385 67.632 633.385 74.8V106H619.945V76.624C619.945 72.4 618.889 69.168 616.777 66.928C614.665 64.624 611.785 63.472 608.137 63.472C604.425 63.472 601.481 64.624 599.305 66.928C597.193 69.168 596.137 72.4 596.137 76.624V106H582.697V52.816H596.137V59.44C597.929 57.136 600.201 55.344 602.953 54.064C605.769 52.72 608.841 52.048 612.169 52.048ZM666.998 51.952C670.966 51.952 674.454 52.752 677.462 54.352C680.47 55.888 682.838 57.904 684.566 60.4V52.816H698.102V106.384C698.102 111.312 697.11 115.696 695.126 119.536C693.142 123.44 690.166 126.512 686.198 128.752C682.23 131.056 677.43 132.208 671.798 132.208C664.246 132.208 658.038 130.448 653.174 126.928C648.374 123.408 645.654 118.608 645.014 112.528H658.358C659.062 114.96 660.566 116.88 662.87 118.288C665.238 119.76 668.086 120.496 671.414 120.496C675.318 120.496 678.486 119.312 680.918 116.944C683.35 114.64 684.566 111.12 684.566 106.384V98.128C682.838 100.624 680.438 102.704 677.366 104.368C674.358 106.032 670.902 106.864 666.998 106.864C662.518 106.864 658.422 105.712 654.71 103.408C650.998 101.104 648.054 97.872 645.878 93.712C643.766 89.488 642.71 84.656 642.71 79.216C642.71 73.84 643.766 69.072 645.878 64.912C648.054 60.752 650.966 57.552 654.614 55.312C658.326 53.072 662.454 51.952 666.998 51.952ZM684.566 79.408C684.566 76.144 683.926 73.36 682.646 71.056C681.366 68.688 679.638 66.896 677.462 65.68C675.286 64.4 672.95 63.76 670.454 63.76C667.958 63.76 665.654 64.368 663.542 65.584C661.43 66.8 659.702 68.592 658.358 70.96C657.078 73.264 656.438 76.016 656.438 79.216C656.438 82.416 657.078 85.232 658.358 87.664C659.702 90.032 661.43 91.856 663.542 93.136C665.718 94.416 668.022 95.056 670.454 95.056C672.95 95.056 675.286 94.448 677.462 93.232C679.638 91.952 681.366 90.16 682.646 87.856C683.926 85.488 684.566 82.672 684.566 79.408Z" fill="white"/>
<mask id="path-2-inside-1_388_102" fill="white">
<path d="M68.7928 108.52L20.84 60.5849L68.7928 12.65L116.746 60.5849L68.7928 108.52ZM41.7091 60.5849L68.7928 87.6584L95.8764 60.5849L68.7928 33.4824L41.7091 60.5849Z"/>
</mask>
<path d="M68.7928 108.52L47.5835 129.737C59.2983 141.447 78.2872 141.447 90.002 129.737L68.7928 108.52ZM20.84 60.5849L-0.369278 39.3677C-5.99779 44.9941 -9.16003 52.6264 -9.16003 60.5849C-9.16003 68.5433 -5.99779 76.1756 -0.36928 81.802L20.84 60.5849ZM68.7928 12.65L90.002 -8.5672C78.2872 -20.2776 59.2983 -20.2776 47.5835 -8.5672L68.7928 12.65ZM116.746 60.5849L137.955 81.802C143.583 76.1756 146.746 68.5433 146.746 60.5849C146.746 52.6264 143.583 44.9941 137.955 39.3677L116.746 60.5849ZM41.7091 60.5849L20.4886 39.379C8.77822 51.0975 8.78328 70.0898 20.4999 81.802L41.7091 60.5849ZM68.7928 87.6584L47.5835 108.876C59.2983 120.586 78.2872 120.586 90.002 108.876L68.7928 87.6584ZM95.8764 60.5849L117.086 81.802C128.802 70.0898 128.807 51.0975 117.097 39.379L95.8764 60.5849ZM68.7928 33.4824L90.0133 12.2766C84.3866 6.64599 76.7528 3.48243 68.7928 3.48243C60.8327 3.48243 53.1989 6.64599 47.5722 12.2766L68.7928 33.4824ZM90.002 87.3026L42.0492 39.3677L-0.36928 81.802L47.5835 129.737L90.002 87.3026ZM42.0492 81.802L90.002 33.8671L47.5835 -8.5672L-0.369278 39.3677L42.0492 81.802ZM47.5835 33.8671L95.5363 81.802L137.955 39.3677L90.002 -8.5672L47.5835 33.8671ZM95.5363 39.3677L47.5835 87.3026L90.002 129.737L137.955 81.802L95.5363 39.3677ZM20.4999 81.802L47.5835 108.876L90.002 66.4412L62.9184 39.3677L20.4999 81.802ZM90.002 108.876L117.086 81.802L74.6672 39.3677L47.5835 66.4412L90.002 108.876ZM117.097 39.379L90.0133 12.2766L47.5722 54.6883L74.6558 81.7907L117.097 39.379ZM47.5722 12.2766L20.4886 39.379L62.9297 81.7907L90.0133 54.6883L47.5722 12.2766Z" fill="white" mask="url(#path-2-inside-1_388_102)"/>
<mask id="path-4-inside-2_388_102" fill="white">
<path d="M68.793 129.352L127.758 70.4087L137.586 80.2326L68.793 149L0 80.2326L9.82757 70.4087L68.793 129.352Z"/>
</mask>
<path d="M68.793 129.352L127.758 70.4087L137.586 80.2326L68.793 149L0 80.2326L9.82757 70.4087L68.793 129.352Z" fill="white"/>
<path d="M68.793 129.352L57.4814 140.668L68.793 151.975L80.1046 140.668L68.793 129.352ZM127.758 70.4087L139.07 59.0929L127.758 47.7855L116.447 59.0929L127.758 70.4087ZM137.586 80.2326L148.898 91.5484L160.218 80.2326L148.898 68.9168L137.586 80.2326ZM68.793 149L57.4814 160.316L68.793 171.623L80.1046 160.316L68.793 149ZM0 80.2326L-11.3116 68.9168L-22.6316 80.2326L-11.3116 91.5484L0 80.2326ZM9.82757 70.4087L21.1392 59.0929L9.82757 47.7855L-1.48402 59.0929L9.82757 70.4087ZM80.1046 140.668L139.07 81.7245L116.447 59.0929L57.4814 118.036L80.1046 140.668ZM116.447 81.7245L126.274 91.5484L148.898 68.9168L139.07 59.0929L116.447 81.7245ZM126.274 68.9168L57.4814 137.684L80.1046 160.316L148.898 91.5484L126.274 68.9168ZM80.1046 137.684L11.3116 68.9168L-11.3116 91.5484L57.4814 160.316L80.1046 137.684ZM11.3116 91.5484L21.1392 81.7245L-1.48402 59.0929L-11.3116 68.9168L11.3116 91.5484ZM-1.48402 81.7245L57.4814 140.668L80.1046 118.036L21.1392 59.0929L-1.48402 81.7245Z" fill="white" mask="url(#path-4-inside-2_388_102)"/>
</svg>
