<svg width="24" height="26" viewBox="0 0 24 26" fill="none" xmlns="http://www.w3.org/2000/svg">
<path d="M15 0.655807H5C2.243 0.655807 0 3.01737 0 5.9201V16.4487C0 19.3514 2.243 21.713 5 21.713H15C17.757 21.713 20 19.3514 20 16.4487V5.9201C20 3.01737 17.757 0.655807 15 0.655807ZM14 12.2372H11V15.3958C11 15.977 10.552 16.4487 10 16.4487C9.448 16.4487 9 15.977 9 15.3958V12.2372H6C5.448 12.2372 5 11.7656 5 11.1844C5 10.6032 5.448 10.1315 6 10.1315H9V6.97296C9 6.39178 9.448 5.9201 10 5.9201C10.552 5.9201 11 6.39178 11 6.97296V10.1315H14C14.552 10.1315 15 10.6032 15 11.1844C15 11.7656 14.552 12.2372 14 12.2372ZM19 25.9244H7C6.448 25.9244 6 25.4527 6 24.8715C6 24.2904 6.448 23.8187 7 23.8187H19C20.654 23.8187 22 22.4015 22 20.6601V8.02581C22 7.44464 22.448 6.97296 23 6.97296C23.552 6.97296 24 7.44464 24 8.02581V20.6601C24 23.5628 21.757 25.9244 19 25.9244Z" fill="#004442"/>
</svg>
